<svg xmlns="http://www.w3.org/2000/svg" viewBox="0 0 32 32" shape-rendering="crispEdges">
  <!-- Pixel-exact SVG of favicon.ico. In dark mode the black side-shadow
       is hidden, leaving just the yellow square. -->
  <style>
    @media (prefers-color-scheme: dark) { .shadow { display: none; } }
  </style>
  <path class="shadow" fill="#000000" d="M12 0h1v1h-1zM18 0h1v1h-1zM4 2h4v1h-4zM27 2h4v1h-4zM4 3h4v1h-4zM27 3h4v1h-4zM3 4h5v1h-5zM27 4h4v1h-4zM4 5h4v1h-4zM27 5h4v1h-4zM3 6h5v1h-5zM27 6h5v1h-5zM3 7h5v1h-5zM27 7h4v1h-4zM4 8h4v1h-4zM27 8h4v1h-4zM3 9h5v1h-5zM27 9h4v1h-4zM4 10h4v1h-4zM27 10h5v1h-5zM3 11h5v1h-5zM27 11h5v1h-5zM3 12h5v1h-5zM27 12h5v1h-5zM4 13h4v1h-4zM27 13h4v1h-4zM3 14h5v1h-5zM27 14h5v1h-5zM4 15h4v1h-4zM27 15h4v1h-4zM3 16h5v1h-5zM27 16h5v1h-5zM3 17h5v1h-5zM27 17h5v1h-5zM3 18h5v1h-5zM27 18h4v1h-4zM4 19h4v1h-4zM27 19h5v1h-5zM3 20h5v1h-5zM27 20h5v1h-5zM3 21h5v1h-5zM27 21h4v1h-4zM3 22h5v1h-5zM27 22h5v1h-5zM3 23h5v1h-5zM27 23h4v1h-4zM4 24h4v1h-4zM27 24h5v1h-5zM4 25h4v1h-4zM27 25h5v1h-5zM4 26h4v1h-4zM27 26h5v1h-5zM4 27h4v1h-4zM27 27h5v1h-5zM4 28h4v1h-4zM27 28h5v1h-5zM4 29h4v1h-4zM27 29h5v1h-5zM3 31h1v1h-1zM5 31h1v1h-1zM16 31h6v1h-6zM24 31h5v1h-5zM30 31h2v1h-2z"/>
  <rect x="8" y="2" width="19" height="28" fill="#FED690"/>
</svg>
